<svg width="171" height="26" viewBox="0 0 171 26" fill="none" xmlns="http://www.w3.org/2000/svg">
<path d="M23.0998 0.147461H12.8574V12.9894H23.0998C24.5569 12.9894 25.7139 11.8122 25.7139 10.3782V2.75865C25.7139 1.30323 24.5354 0.147461 23.0998 0.147461V0.147461Z" fill="#FA7C3F"/>
<path d="M0 16.2214V22.6209C0 24.3974 1.43565 25.8528 3.23556 25.8528H12.8565V12.9895H3.23556C1.45707 12.9895 0 14.4235 0 16.2214Z" fill="#FA7C3F"/>
<path d="M23.1416 25.8311C24.5617 25.8311 25.7129 24.6812 25.7129 23.2627C25.7129 21.8442 24.5617 20.6943 23.1416 20.6943C21.7215 20.6943 20.5703 21.8442 20.5703 23.2627C20.5703 24.6812 21.7215 25.8311 23.1416 25.8311Z" fill="#FA7C3F"/>
<path d="M2.5713 5.28422C3.9914 5.28422 5.14261 4.13432 5.14261 2.71584C5.14261 1.29736 3.9914 0.147461 2.5713 0.147461C1.15121 0.147461 0 1.29736 0 2.71584C0 4.13432 1.15121 5.28422 2.5713 5.28422Z" fill="#FA7C3F"/>
<path d="M50.0136 18.8694L46.0248 7.23779H43.9017L39.9772 18.8694L35.9454 7.23779H33.8652L38.9049 20.7544H41.0066L44.9525 9.55126L48.9199 20.7544H51.043L56.0612 7.23779H53.9596L50.0136 18.8694Z" fill="white"/>
<path d="M69.0789 10.751C68.6285 9.63706 67.9208 8.7588 66.9558 8.13759C65.9907 7.51638 64.7898 7.19507 63.3315 7.19507C62.0233 7.19507 60.8653 7.51638 59.8359 8.07333C58.8065 8.6517 58.0131 9.44427 57.4555 10.4725C56.8979 11.5007 56.5977 12.6788 56.5977 14.0069C56.5977 15.335 56.8764 16.5346 57.4555 17.5628C58.0131 18.591 58.8065 19.3836 59.8359 19.962C60.8653 20.5403 62.0448 20.8188 63.3744 20.8188C64.4896 20.8188 65.5189 20.626 66.4411 20.2405C67.3632 19.8549 68.1567 19.3194 68.8001 18.6125L67.6849 17.4986C66.6127 18.6553 65.1973 19.2551 63.4816 19.2551C62.5166 19.2551 61.6588 19.0409 60.9082 18.591C60.1576 18.1412 59.5571 17.52 59.1497 16.7274C58.828 16.1276 58.6779 15.4422 58.5921 14.7138H69.5936C69.6794 13.2144 69.4863 11.8863 69.036 10.7724L69.0789 10.751ZM58.6135 13.2144C58.6993 12.4861 58.8494 11.822 59.1497 11.2436C59.5571 10.4725 60.1147 9.87269 60.8438 9.44427C61.5515 9.01585 62.3879 8.80164 63.3315 8.80164C64.2322 8.80164 65.0043 8.97301 65.6691 9.33717C66.3339 9.70132 66.8486 10.2154 67.2346 10.8581C67.6206 11.5221 67.835 12.2933 67.8565 13.2144H58.6135Z" fill="white"/>
<path d="M84.284 7.81625C83.2975 7.23788 82.1609 6.93799 80.8527 6.93799C79.6517 6.93799 78.6224 7.21646 77.7431 7.77341C77.1212 8.18041 76.6279 8.73735 76.2205 9.4014V7.06651H72.875V25.7456H76.2205V18.3982C76.6494 19.0623 77.1212 19.6406 77.7645 20.0476C78.6438 20.6046 79.6946 20.8831 80.8956 20.8831C82.2038 20.8831 83.3404 20.5832 84.3054 20.0048C85.2704 19.405 86.021 18.591 86.5572 17.5628C87.0933 16.5346 87.3506 15.3136 87.3506 13.9427C87.3506 12.5717 87.0719 11.3079 86.5357 10.2582C85.9996 9.20861 85.2276 8.39462 84.2625 7.79483L84.284 7.81625ZM83.4905 16.1062C83.1688 16.7488 82.7184 17.2629 82.1394 17.6271C81.5604 17.9912 80.8956 18.184 80.1235 18.184C79.3515 18.184 78.6867 18.0126 78.1077 17.6485C77.5286 17.2843 77.0569 16.7916 76.7352 16.1276C76.4135 15.485 76.2419 14.7352 76.2419 13.8998C76.2419 13.0644 76.4135 12.3147 76.7352 11.672C77.0569 11.0294 77.5286 10.5153 78.1077 10.1511C78.6867 9.78698 79.373 9.59419 80.1235 9.59419C80.8741 9.59419 81.5604 9.78698 82.1394 10.1511C82.7184 10.5153 83.1688 11.0294 83.4905 11.672C83.8122 12.3147 83.9837 13.0644 83.9837 13.8998C83.9837 14.7352 83.8122 15.485 83.4905 16.1276V16.1062Z" fill="white"/>
<path d="M93.6345 9.76556V7.06651H90.2891V20.7759H93.6345V14.1354C93.6345 13.3 93.8276 12.5503 94.1921 11.9077C94.5567 11.265 95.1143 10.7509 95.822 10.4082C96.5297 10.0655 97.366 9.91551 98.3096 9.97977V6.93799C97.1516 6.93799 96.1651 7.21646 95.3287 7.75199C94.5996 8.22325 94.0635 8.90872 93.6345 9.76556V9.76556Z" fill="white"/>
<path d="M110.06 8.22325C109.074 7.36641 107.701 6.93799 105.9 6.93799C105.042 6.93799 104.291 7.00225 103.626 7.13078C102.962 7.2593 102.34 7.45209 101.739 7.68772C101.139 7.94477 100.517 8.26609 99.852 8.65167L101.053 10.8152C101.761 10.3868 102.447 10.0655 103.155 9.82982C103.841 9.59419 104.506 9.48709 105.149 9.48709C106.178 9.48709 106.95 9.72272 107.487 10.194C108.001 10.6652 108.28 11.3079 108.28 12.1433V12.5503H104.27C102.597 12.5503 101.31 12.9359 100.41 13.6642C99.5089 14.3925 99.0371 15.3993 99.0371 16.6631C99.0371 17.4771 99.2301 18.184 99.6376 18.8266C100.024 19.4693 100.581 19.9834 101.31 20.3475C102.039 20.7117 102.876 20.9045 103.862 20.9045C105.085 20.9045 106.114 20.6688 106.972 20.219C107.508 19.9191 107.937 19.5121 108.302 19.0408V20.7545H111.604V11.7577C111.561 10.2582 111.068 9.05867 110.081 8.20183L110.06 8.22325ZM107.722 17.1558C107.401 17.5628 106.972 17.8841 106.436 18.0983C105.9 18.334 105.299 18.4411 104.613 18.4411C103.862 18.4411 103.262 18.2697 102.833 17.9055C102.404 17.5414 102.168 17.0701 102.168 16.4918C102.168 15.8491 102.383 15.3993 102.811 15.1208C103.24 14.8423 103.884 14.7138 104.763 14.7138H108.237V15.8491C108.173 16.3204 108.001 16.7488 107.701 17.1344L107.722 17.1558Z" fill="white"/>
<path d="M124.579 9.18721C124.193 8.58742 123.721 8.07332 123.142 7.70916C122.305 7.17363 121.297 6.91658 120.097 6.938C118.917 6.938 117.866 7.21648 116.965 7.77342C116.065 8.33037 115.357 9.10152 114.842 10.0655C114.328 11.0294 114.092 12.1647 114.092 13.4714C114.092 14.7781 114.349 15.9348 114.864 16.9202C115.379 17.927 116.086 18.6981 117.008 19.2551C117.931 19.812 119.003 20.0905 120.204 20.0905C121.405 20.0905 122.37 19.8334 123.185 19.2979C123.742 18.9338 124.193 18.4197 124.579 17.8413V19.5335C124.579 20.2833 124.407 20.9473 124.085 21.4829C123.764 22.0398 123.292 22.4682 122.691 22.7681C122.091 23.068 121.362 23.2394 120.547 23.2394C119.732 23.2394 118.96 23.1109 118.252 22.8538C117.545 22.5967 116.88 22.2326 116.236 21.7828L114.907 24.0748C115.722 24.6317 116.622 25.0602 117.587 25.3815C118.552 25.7028 119.603 25.8742 120.718 25.8742C122.177 25.8742 123.442 25.6171 124.536 25.0816C125.608 24.5675 126.444 23.8177 127.045 22.8538C127.645 21.8899 127.924 20.7545 127.924 19.4264V7.06653H124.579V9.18721ZM124.107 15.6563C123.807 16.2776 123.378 16.7488 122.82 17.0916C122.262 17.4343 121.641 17.6057 120.911 17.6057C120.182 17.6057 119.56 17.4343 119.003 17.0916C118.445 16.7488 118.016 16.2776 117.716 15.6563C117.416 15.0351 117.244 14.3282 117.223 13.5571C117.223 12.7645 117.394 12.0576 117.716 11.4578C118.038 10.858 118.467 10.3654 119.024 10.0226C119.582 9.67989 120.204 9.50852 120.911 9.50852C121.619 9.50852 122.262 9.67989 122.82 10.0226C123.378 10.3654 123.807 10.8366 124.107 11.4578C124.407 12.0576 124.579 12.7645 124.579 13.5785C124.579 14.3925 124.428 15.078 124.107 15.6778V15.6563Z" fill="white"/>
<path d="M152.566 7.58062C151.815 7.1522 150.936 6.93799 149.907 6.93799C148.727 6.93799 147.698 7.17362 146.84 7.6663C145.982 8.15898 145.317 8.90872 144.867 9.95835C144.824 10.044 144.803 10.1726 144.781 10.2797C144.696 9.97977 144.61 9.65845 144.481 9.4014C144.074 8.63025 143.495 8.00904 142.765 7.58062C142.015 7.1522 141.114 6.93799 140.085 6.93799C138.927 6.93799 137.897 7.17362 137.04 7.6663C136.289 8.09472 135.71 8.78019 135.26 9.61561V7.04509H131.914V20.7545H135.26V13.9855C135.26 12.8288 135.581 11.8434 136.203 11.0722C136.825 10.3011 137.683 9.89408 138.755 9.87266C139.699 9.87266 140.428 10.1511 140.964 10.7295C141.5 11.3079 141.758 12.079 141.758 13.0858V20.7545H145.124V13.9855C145.124 12.8288 145.425 11.8434 146.047 11.0722C146.668 10.3011 147.505 9.89408 148.599 9.87266C149.542 9.87266 150.271 10.1511 150.807 10.7295C151.344 11.3079 151.601 12.079 151.601 13.0858V20.7545H154.968V12.1861C154.968 11.0937 154.753 10.1511 154.346 9.37998C153.938 8.60883 153.359 7.98762 152.609 7.5592L152.566 7.58062Z" fill="white"/>
<path d="M170.087 20.7545V11.7576C170.044 10.2582 169.55 9.0586 168.564 8.20176C167.577 7.34492 166.205 6.9165 164.404 6.9165C163.546 6.9165 162.795 6.98077 162.13 7.10929C161.466 7.23782 160.844 7.43061 160.243 7.66624C159.643 7.92329 159.021 8.24461 158.356 8.63018L159.557 10.7937C160.265 10.3653 160.951 10.044 161.659 9.80834C162.345 9.57271 163.01 9.4656 163.653 9.4656C164.682 9.4656 165.454 9.70123 165.991 10.1725C166.505 10.6438 166.784 11.2864 166.784 12.1218V12.5288H162.774C161.101 12.5288 159.814 12.9144 158.914 13.6427C158.013 14.371 157.541 15.3778 157.541 16.6416C157.541 17.4556 157.734 18.1625 158.141 18.8052C158.528 19.4478 159.085 19.9619 159.814 20.326C160.543 20.6902 161.38 20.883 162.366 20.883C163.589 20.883 164.618 20.6474 165.476 20.1975C166.012 19.8976 166.441 19.4906 166.805 19.0194V20.733H170.108L170.087 20.7545ZM166.248 17.1343C165.926 17.5413 165.497 17.8626 164.961 18.0768C164.425 18.3125 163.825 18.4196 163.138 18.4196C162.388 18.4196 161.787 18.2482 161.358 17.8841C160.929 17.5199 160.693 17.0486 160.693 16.4703C160.693 15.8276 160.908 15.3778 161.337 15.0993C161.766 14.8208 162.409 14.6923 163.288 14.6923H166.763V15.8276C166.698 16.2989 166.527 16.7273 166.226 17.1129L166.248 17.1343Z" fill="white"/>
</svg>
