<svg width="72" height="71" viewBox="0 0 72 71" fill="none" xmlns="http://www.w3.org/2000/svg">
<g filter="url(#filter0_d_435_35550)">
<circle cx="36" cy="30" r="23.25" fill="#050831" stroke="url(#paint0_linear_435_35550)" stroke-width="1.5"/>
<path d="M44.5352 27.689H28.5352M44.5352 29.9112V26.6223C44.5352 25.1289 44.5352 24.3821 44.2445 23.8117C43.9888 23.3099 43.5809 22.902 43.0791 22.6463C42.5087 22.3557 41.762 22.3557 40.2685 22.3557H32.8018C31.3083 22.3557 30.5616 22.3557 29.9912 22.6463C29.4894 22.902 29.0815 23.3099 28.8258 23.8117C28.5352 24.3821 28.5352 25.1289 28.5352 26.6223V34.089C28.5352 35.5825 28.5352 36.3292 28.8258 36.8996C29.0815 37.4014 29.4894 37.8093 29.9912 38.065C30.5616 38.3557 31.3083 38.3557 32.8018 38.3557H36.5352M40.0907 20.5779V24.1334M32.9796 20.5779V24.1334M38.7574 35.689L40.5352 37.4668L44.5352 33.4668" stroke="#F0F9FE" stroke-width="1.53174" stroke-linecap="round" stroke-linejoin="round"/>
</g>
<defs>
<filter id="filter0_d_435_35550" x="0.75" y="0.375" width="70.5" height="70.5" filterUnits="userSpaceOnUse" color-interpolation-filters="sRGB">
<feFlood flood-opacity="0" result="BackgroundImageFix"/>
<feColorMatrix in="SourceAlpha" type="matrix" values="0 0 0 0 0 0 0 0 0 0 0 0 0 0 0 0 0 0 127 0" result="hardAlpha"/>
<feOffset dy="5.625"/>
<feGaussianBlur stdDeviation="5.625"/>
<feComposite in2="hardAlpha" operator="out"/>
<feColorMatrix type="matrix" values="0 0 0 0 0 0 0 0 0 0 0 0 0 0 0 0 0 0 0.6 0"/>
<feBlend mode="normal" in2="BackgroundImageFix" result="effect1_dropShadow_435_35550"/>
<feBlend mode="normal" in="SourceGraphic" in2="effect1_dropShadow_435_35550" result="shape"/>
</filter>
<linearGradient id="paint0_linear_435_35550" x1="36.2275" y1="6" x2="35.4667" y2="43.3326" gradientUnits="userSpaceOnUse">
<stop stop-color="#FF692E"/>
<stop offset="1" stop-color="#FDBF8B" stop-opacity="0"/>
</linearGradient>
</defs>
</svg>
