<svg width="24" height="25" viewBox="0 0 24 25" fill="none" xmlns="http://www.w3.org/2000/svg">
<path d="M12 2.9063C15.2063 2.9063 15.5859 2.92036 16.8469 2.97661C18.0188 3.02817 18.6516 3.22505 19.0734 3.38911C19.6313 3.60474 20.0344 3.86724 20.4516 4.28442C20.8734 4.7063 21.1313 5.10474 21.3469 5.66255C21.5109 6.08442 21.7078 6.72192 21.7594 7.88911C21.8156 9.15474 21.8297 9.53442 21.8297 12.736C21.8297 15.9422 21.8156 16.3219 21.7594 17.5829C21.7078 18.7547 21.5109 19.3876 21.3469 19.8094C21.1313 20.3672 20.8687 20.7704 20.4516 21.1875C20.0297 21.6094 19.6313 21.8672 19.0734 22.0829C18.6516 22.2469 18.0141 22.4438 16.8469 22.4954C15.5813 22.5516 15.2016 22.5657 12 22.5657C8.79375 22.5657 8.41406 22.5516 7.15313 22.4954C5.98125 22.4438 5.34844 22.2469 4.92656 22.0829C4.36875 21.8672 3.96563 21.6047 3.54844 21.1875C3.12656 20.7657 2.86875 20.3672 2.65313 19.8094C2.48906 19.3876 2.29219 18.75 2.24063 17.5829C2.18438 16.3172 2.17031 15.9375 2.17031 12.736C2.17031 9.52974 2.18438 9.15005 2.24063 7.88911C2.29219 6.71724 2.48906 6.08442 2.65313 5.66255C2.86875 5.10474 3.13125 4.70161 3.54844 4.28442C3.97031 3.86255 4.36875 3.60474 4.92656 3.38911C5.34844 3.22505 5.98594 3.02817 7.15313 2.97661C8.41406 2.92036 8.79375 2.9063 12 2.9063ZM12 0.745361C8.74219 0.745361 8.33438 0.759424 7.05469 0.815674C5.77969 0.871924 4.90313 1.07817 4.14375 1.37349C3.35156 1.68286 2.68125 2.09067 2.01563 2.76099C1.34531 3.42661 0.9375 4.09692 0.628125 4.88442C0.332812 5.64849 0.126563 6.52036 0.0703125 7.79536C0.0140625 9.07974 0 9.48755 0 12.7454C0 16.0032 0.0140625 16.411 0.0703125 17.6907C0.126563 18.9657 0.332812 19.8422 0.628125 20.6016C0.9375 21.3938 1.34531 22.0641 2.01563 22.7297C2.68125 23.3954 3.35156 23.8079 4.13906 24.1125C4.90313 24.4079 5.775 24.6141 7.05 24.6704C8.32969 24.7266 8.7375 24.7407 11.9953 24.7407C15.2531 24.7407 15.6609 24.7266 16.9406 24.6704C18.2156 24.6141 19.0922 24.4079 19.8516 24.1125C20.6391 23.8079 21.3094 23.3954 21.975 22.7297C22.6406 22.0641 23.0531 21.3938 23.3578 20.6063C23.6531 19.8422 23.8594 18.9704 23.9156 17.6954C23.9719 16.4157 23.9859 16.0079 23.9859 12.75C23.9859 9.49224 23.9719 9.08442 23.9156 7.80474C23.8594 6.52974 23.6531 5.65317 23.3578 4.8938C23.0625 4.09692 22.6547 3.42661 21.9844 2.76099C21.3188 2.09536 20.6484 1.68286 19.8609 1.37817C19.0969 1.08286 18.225 0.876611 16.95 0.820361C15.6656 0.759424 15.2578 0.745361 12 0.745361Z" fill="#98A2B3"/>
<path d="M12 6.5813C8.59688 6.5813 5.83594 9.34224 5.83594 12.7454C5.83594 16.1485 8.59688 18.9094 12 18.9094C15.4031 18.9094 18.1641 16.1485 18.1641 12.7454C18.1641 9.34224 15.4031 6.5813 12 6.5813ZM12 16.7438C9.79219 16.7438 8.00156 14.9532 8.00156 12.7454C8.00156 10.5375 9.79219 8.74692 12 8.74692C14.2078 8.74692 15.9984 10.5375 15.9984 12.7454C15.9984 14.9532 14.2078 16.7438 12 16.7438Z" fill="#98A2B3"/>
<path d="M19.8469 6.3375C19.8469 7.13438 19.2 7.77657 18.4078 7.77657C17.6109 7.77657 16.9688 7.12969 16.9688 6.3375C16.9688 5.54063 17.6156 4.89844 18.4078 4.89844C19.2 4.89844 19.8469 5.54531 19.8469 6.3375Z" fill="#98A2B3"/>
</svg>
