<svg width="24" height="25" viewBox="0 0 24 25" fill="none" xmlns="http://www.w3.org/2000/svg">
<path d="M22.2234 0.745361H1.77187C0.792187 0.745361 0 1.5188 0 2.47505V23.011C0 23.9672 0.792187 24.7454 1.77187 24.7454H22.2234C23.2031 24.7454 24 23.9672 24 23.0157V2.47505C24 1.5188 23.2031 0.745361 22.2234 0.745361ZM7.12031 21.1969H3.55781V9.74067H7.12031V21.1969ZM5.33906 8.17974C4.19531 8.17974 3.27188 7.2563 3.27188 6.11724C3.27188 4.97817 4.19531 4.05474 5.33906 4.05474C6.47813 4.05474 7.40156 4.97817 7.40156 6.11724C7.40156 7.25161 6.47813 8.17974 5.33906 8.17974ZM20.4516 21.1969H16.8937V15.6282C16.8937 14.3016 16.8703 12.5907 15.0422 12.5907C13.1906 12.5907 12.9094 14.0391 12.9094 15.5344V21.1969H9.35625V9.74067H12.7687V11.3063H12.8156C13.2891 10.4063 14.4516 9.45474 16.1813 9.45474C19.7859 9.45474 20.4516 11.8266 20.4516 14.911V21.1969Z" fill="#98A2B3"/>
</svg>
