<svg width="131" height="130" viewBox="0 0 131 130" fill="none" xmlns="http://www.w3.org/2000/svg">
<g filter="url(#filter0_dd_404_9034)">
<rect x="25.75" y="5" width="80" height="80" rx="16" fill="#FCFCFD" shape-rendering="crispEdges"/>
<rect x="26.1427" y="5.39268" width="79.2146" height="79.2146" rx="15.6073" stroke="white" stroke-width="0.785353" style="mix-blend-mode:overlay" shape-rendering="crispEdges"/>
<g clip-path="url(#clip0_404_9034)">
<path d="M86.2372 61.9507C86.2456 63.5664 85.5603 65.1081 84.3551 66.1843C83.1499 67.2604 81.5408 67.7676 79.9363 67.577C77.0491 67.1498 74.9333 64.6373 75.0037 61.7195V28.1733C74.9339 25.2523 77.0549 22.7386 79.946 22.3158C81.5489 22.1282 83.1553 22.6367 84.3583 23.7125C85.5612 24.7884 86.2453 26.3283 86.2372 27.9421V61.9507Z" fill="#293056"/>
<path d="M50.8862 56.3918C53.9883 56.3918 56.503 58.9065 56.503 62.0086C56.503 65.1106 53.9883 67.6253 50.8862 67.6253C47.7842 67.6253 45.2695 65.1106 45.2695 62.0086C45.2695 58.9065 47.7842 56.3918 50.8862 56.3918ZM65.665 39.3683C62.5483 39.5391 60.1302 42.1535 60.2025 45.274V60.3611C60.2025 64.4556 62.0041 66.9412 64.6438 67.4711C66.301 67.807 68.0214 67.3797 69.329 66.3076C70.6365 65.2354 71.3925 63.632 71.3877 61.9411V45.0139C71.3905 43.5023 70.7859 42.053 69.7099 40.9914C68.6338 39.9299 67.1764 39.345 65.665 39.3683Z" fill="#293056"/>
</g>
</g>
<defs>
<filter id="filter0_dd_404_9034" x="0.75" y="0" width="130" height="130" filterUnits="userSpaceOnUse" color-interpolation-filters="sRGB">
<feFlood flood-opacity="0" result="BackgroundImageFix"/>
<feColorMatrix in="SourceAlpha" type="matrix" values="0 0 0 0 0 0 0 0 0 0 0 0 0 0 0 0 0 0 127 0" result="hardAlpha"/>
<feMorphology radius="4" operator="erode" in="SourceAlpha" result="effect1_dropShadow_404_9034"/>
<feOffset dy="13"/>
<feGaussianBlur stdDeviation="8.5"/>
<feComposite in2="hardAlpha" operator="out"/>
<feColorMatrix type="matrix" values="0 0 0 0 0.123902 0 0 0 0 0.161014 0 0 0 0 0.225118 0 0 0 0.04 0"/>
<feBlend mode="normal" in2="BackgroundImageFix" result="effect1_dropShadow_404_9034"/>
<feColorMatrix in="SourceAlpha" type="matrix" values="0 0 0 0 0 0 0 0 0 0 0 0 0 0 0 0 0 0 127 0" result="hardAlpha"/>
<feMorphology radius="4" operator="erode" in="SourceAlpha" result="effect2_dropShadow_404_9034"/>
<feOffset dy="20"/>
<feGaussianBlur stdDeviation="14.5"/>
<feComposite in2="hardAlpha" operator="out"/>
<feColorMatrix type="matrix" values="0 0 0 0 0.123902 0 0 0 0 0.161014 0 0 0 0 0.225118 0 0 0 0.05 0"/>
<feBlend mode="normal" in2="effect1_dropShadow_404_9034" result="effect2_dropShadow_404_9034"/>
<feBlend mode="normal" in="SourceGraphic" in2="effect2_dropShadow_404_9034" result="shape"/>
</filter>
<clipPath id="clip0_404_9034">
<rect width="45.4444" height="45.4444" fill="white" transform="translate(43.0273 22.2778)"/>
</clipPath>
</defs>
</svg>
