<svg width="131" height="130" viewBox="0 0 131 130" fill="none" xmlns="http://www.w3.org/2000/svg">
<g filter="url(#filter0_dd_404_9046)">
<rect x="25.75" y="5" width="80" height="80" rx="16" fill="#FCFCFD" shape-rendering="crispEdges"/>
<rect x="26.1427" y="5.39268" width="79.2146" height="79.2146" rx="15.6073" stroke="white" stroke-width="0.785353" style="mix-blend-mode:overlay" shape-rendering="crispEdges"/>
<g clip-path="url(#clip0_404_9046)">
<path d="M66.2168 34.9358C64.9747 40.0369 65.0542 39.7643 63.9276 44.4299C63.903 44.8597 63.547 45.1987 63.1134 45.1987C63.066 45.1987 63.0187 45.1949 62.9732 45.1873H62.9789H61.7008C61.6629 45.1949 61.6175 45.1987 61.5739 45.1987C61.1895 45.1987 60.8733 44.9127 60.8241 44.5435V44.5397C59.7315 41.0443 58.2678 36.1893 57.2832 32.9419C56.9197 31.7433 57.1582 31.7717 58.1088 31.7963C58.4383 31.8058 58.7564 31.7963 59.084 31.7963C59.1067 31.7944 59.1332 31.7926 59.1616 31.7926C59.5327 31.7926 59.8395 32.0671 59.8906 32.4231V32.4269C60.2106 33.5725 60.4227 34.4511 62.2499 41.6673C62.284 41.8093 62.3294 41.9437 62.3749 42.0744H62.4715C62.515 41.8964 62.568 41.7297 62.6135 41.5499C63.3052 38.63 63.9945 35.7077 64.6812 32.7829C64.8952 31.874 65.2758 31.7888 66.196 31.7888H66.8701C67.476 31.7982 67.6692 31.9213 67.8206 32.5253C68.3527 34.6025 69.9073 41.5574 70.1894 42.3224C70.6439 40.6978 70.0304 43.023 72.7192 32.6503C72.9047 31.9327 73.0827 31.7907 73.8117 31.7907H74.9308C75.4099 31.8001 75.5519 31.9497 75.4364 32.4212C75.2224 33.2657 75.1789 33.2998 71.7724 44.214C71.496 45.0926 71.3994 45.1722 70.4773 45.1722H69.5362C68.8886 45.1722 68.7201 45.0566 68.561 44.4261C68.1785 42.9889 66.4933 35.9337 66.2168 34.9396V34.9358ZM54.1665 44.8029C54.2952 45.0661 54.5603 45.2441 54.8671 45.2441C55.0829 45.2441 55.2761 45.157 55.4181 45.015L55.9767 44.642C56.5826 44.2424 56.6243 44.0834 56.2967 43.4434C55.9445 42.7731 55.7362 41.9797 55.7362 41.1371C55.7362 41.1087 55.7362 41.0803 55.7362 41.0519V41.0556C55.7362 40.7792 55.7892 36.1136 55.6567 35.1289C55.5393 33.4816 54.3975 32.1296 52.8713 31.6998L52.8448 31.6941C52.1764 31.5085 51.4095 31.4025 50.6161 31.4025C50.3776 31.4025 50.139 31.412 49.9061 31.4309L49.9364 31.429C48.5427 31.4839 47.2476 31.8531 46.102 32.4648L46.1493 32.442C45.977 32.5348 45.8483 32.6882 45.7877 32.8719L45.7858 32.8775C45.7365 33.101 45.7081 33.3585 45.7081 33.6217C45.7081 33.7372 45.7138 33.8527 45.7233 33.9663L45.7214 33.9512C45.7744 34.4757 45.9524 34.5722 46.4485 34.4056C46.903 34.2541 47.3366 34.061 47.7891 33.9265C48.4424 33.6842 49.196 33.5441 49.9837 33.5441C50.5953 33.5441 51.1861 33.6293 51.7466 33.7864L51.7011 33.7751C52.3014 33.955 52.7691 34.4075 52.966 34.985L52.9698 34.9983C53.1156 35.4868 53.2008 36.0473 53.2008 36.6286C53.2008 36.8066 53.1932 36.9846 53.1781 37.1588L53.18 37.1361C53.18 37.6246 53.1705 37.6246 52.6914 37.5356C51.8772 37.333 50.9437 37.2156 49.9818 37.2156C49.6277 37.2156 49.2755 37.2307 48.929 37.2629L48.9745 37.2591C47.5998 37.3595 46.3993 38.0279 45.5907 39.0258L45.5832 39.0353C45.0909 39.7169 44.7955 40.5709 44.7955 41.493C44.7955 41.8661 44.8428 42.2258 44.9337 42.5705L44.928 42.5402C45.1249 43.8315 46.0414 44.8654 47.2476 45.2327L47.2703 45.2384C47.8005 45.4278 48.4121 45.5376 49.0502 45.5376C50.3132 45.5376 51.4777 45.1078 52.4017 44.3863L52.3904 44.3958C52.7274 44.1478 53.0304 43.8467 53.375 43.5513C53.6514 43.9944 53.89 44.411 54.1646 44.7935L54.1665 44.8029ZM52.8032 39.3363H52.8126C53.0228 39.3363 53.1932 39.5067 53.1932 39.7169C53.1932 39.7434 53.1913 39.7681 53.1856 39.7946V39.7927C53.1667 40.1297 53.1951 40.4668 53.1591 40.8038C53.0645 41.7941 52.4453 42.6197 51.5875 43.0079L51.5705 43.0154C51.0138 43.307 50.3567 43.4793 49.658 43.4793C49.516 43.4793 49.3759 43.4718 49.2377 43.4585L49.2547 43.4604C48.253 43.4017 47.4634 42.5761 47.4634 41.565C47.4634 41.4097 47.4824 41.2583 47.5183 41.1125L47.5165 41.1257C47.5657 40.0881 48.3875 39.2568 49.4175 39.1924H49.4232C49.8209 39.128 50.2791 39.0921 50.7449 39.0921C51.4796 39.0921 52.1953 39.183 52.877 39.3534L52.8164 39.3401L52.8032 39.3363ZM83.7546 45.1135C85.3168 44.589 86.4207 43.1385 86.4207 41.4306C86.4207 41.1636 86.3942 40.9023 86.343 40.6504L86.3468 40.675C86.1442 39.4386 85.2789 38.4464 84.1333 38.0639L84.1106 38.0563C82.3837 37.5148 80.9692 36.9675 79.5983 36.3427L79.8426 36.443C79.4468 36.2442 79.178 35.8466 79.1685 35.3846C79.1571 35.3145 79.1515 35.2331 79.1515 35.1517C79.1515 34.3583 79.7536 33.7069 80.5262 33.6274H80.5318C80.9314 33.5327 81.3896 33.4797 81.8611 33.4797C82.272 33.4797 82.6753 33.5213 83.0635 33.599L83.0256 33.5933C83.6732 33.7183 84.2943 33.9663 84.9248 34.1519C85.1728 34.2314 85.4493 34.3374 85.6178 34.0099C85.7049 33.8262 85.756 33.6103 85.756 33.385C85.756 32.8207 85.4417 32.3303 84.9778 32.0804L84.9702 32.0766C84.0348 31.6297 82.9366 31.3703 81.7778 31.3703C80.7439 31.3703 79.7593 31.5786 78.8618 31.9535L78.911 31.9346C77.5382 32.4799 76.5857 33.7978 76.5857 35.3372C76.5857 36.8123 77.4605 38.0847 78.7197 38.6603L78.7425 38.6698C79.426 38.9993 80.1702 39.1943 80.8897 39.4594C81.6092 39.7245 82.3269 39.9744 83.0294 40.266C83.5141 40.5349 83.8379 41.0443 83.8379 41.6294C83.8379 42.1709 83.5615 42.6462 83.1411 42.9245L83.1354 42.9283C80.6776 44.2917 77.3791 42.7144 76.9947 42.5913C76.7031 42.4947 76.5251 42.6102 76.4362 42.9208C76.3642 43.0893 76.3225 43.2862 76.3225 43.4926C76.3225 44.1913 76.8054 44.7783 77.4568 44.9336L77.4662 44.9355C78.4717 45.3388 79.6362 45.5717 80.8556 45.5717C81.8895 45.5717 82.8855 45.4032 83.8152 45.0926L83.7489 45.1116L83.7546 45.1135ZM69.2995 59.5515C74.0295 59.0441 78.324 57.5596 82.1053 55.3025L81.9614 55.382C82.6715 54.9654 83.3361 54.4731 84.0102 53.9884C84.6578 53.5339 84.2943 52.3562 83.0067 52.9053C78.5683 54.8537 73.4141 56.0996 68.0005 56.3534L67.904 56.3572C67.3359 56.3856 66.6713 56.4007 66.0029 56.4007C63.8215 56.4007 61.6781 56.2341 59.5857 55.9122L59.8186 55.9425C53.9165 55.0923 48.6014 53.1817 43.8582 50.4002L44.0646 50.5119C43.8979 50.4002 43.7067 50.3093 43.5022 50.2487L43.487 50.2449C43.0515 50.1483 42.8035 50.6615 43.2731 51.1045C49.0843 56.4784 56.8856 59.7731 65.4575 59.7731H65.484H65.4822C66.7603 59.7011 68.0384 59.6935 69.2976 59.5515H69.2995ZM84.8017 51.3715C86.1158 51.4435 86.5229 51.896 86.1953 53.1628C85.8583 54.4769 85.3698 55.755 84.9627 57.0502C84.8831 57.3077 84.5896 57.6088 84.8907 57.8322C85.2202 58.0632 85.4682 57.7432 85.6898 57.5406C86.5513 56.7207 87.2292 55.7191 87.6666 54.5962L87.6855 54.5413C88.1741 53.4733 88.4581 52.2236 88.4581 50.9076C88.4581 50.8773 88.4581 50.8489 88.4581 50.8186V50.8224C88.4392 50.2733 88.299 50.0404 87.7651 49.8908C87.3409 49.7601 86.8429 49.6598 86.3317 49.6106L86.3014 49.6087C85.9549 49.5651 85.5553 49.5405 85.1482 49.5405C83.5652 49.5405 82.0694 49.9135 80.742 50.5744L80.7988 50.5479C80.5053 50.7069 80.2516 50.8811 80.0187 51.078L80.0263 51.0724C79.9297 51.1519 79.7422 51.5419 80.2402 51.6139C80.2857 51.6177 80.3406 51.6196 80.3936 51.6196C80.5243 51.6196 80.653 51.6082 80.7761 51.5855L80.7628 51.5874C81.7588 51.4454 82.9101 51.364 84.0784 51.364C84.3321 51.364 84.584 51.3677 84.8358 51.3753H84.7998L84.8017 51.3715Z" fill="#293056"/>
</g>
</g>
<defs>
<filter id="filter0_dd_404_9046" x="0.75" y="0" width="130" height="130" filterUnits="userSpaceOnUse" color-interpolation-filters="sRGB">
<feFlood flood-opacity="0" result="BackgroundImageFix"/>
<feColorMatrix in="SourceAlpha" type="matrix" values="0 0 0 0 0 0 0 0 0 0 0 0 0 0 0 0 0 0 127 0" result="hardAlpha"/>
<feMorphology radius="4" operator="erode" in="SourceAlpha" result="effect1_dropShadow_404_9046"/>
<feOffset dy="13"/>
<feGaussianBlur stdDeviation="8.5"/>
<feComposite in2="hardAlpha" operator="out"/>
<feColorMatrix type="matrix" values="0 0 0 0 0.123902 0 0 0 0 0.161014 0 0 0 0 0.225118 0 0 0 0.04 0"/>
<feBlend mode="normal" in2="BackgroundImageFix" result="effect1_dropShadow_404_9046"/>
<feColorMatrix in="SourceAlpha" type="matrix" values="0 0 0 0 0 0 0 0 0 0 0 0 0 0 0 0 0 0 127 0" result="hardAlpha"/>
<feMorphology radius="4" operator="erode" in="SourceAlpha" result="effect2_dropShadow_404_9046"/>
<feOffset dy="20"/>
<feGaussianBlur stdDeviation="14.5"/>
<feComposite in2="hardAlpha" operator="out"/>
<feColorMatrix type="matrix" values="0 0 0 0 0.123902 0 0 0 0 0.161014 0 0 0 0 0.225118 0 0 0 0.05 0"/>
<feBlend mode="normal" in2="effect1_dropShadow_404_9046" result="effect2_dropShadow_404_9046"/>
<feBlend mode="normal" in="SourceGraphic" in2="effect2_dropShadow_404_9046" result="shape"/>
</filter>
<clipPath id="clip0_404_9046">
<rect width="45.4444" height="45.4444" fill="white" transform="translate(43.0273 22.2778)"/>
</clipPath>
</defs>
</svg>
