<svg width="24" height="18" viewBox="0 0 24 18" fill="none" xmlns="http://www.w3.org/2000/svg">
<path d="M23.7609 3.94541C23.7609 3.94541 23.5266 2.29072 22.8047 1.56416C21.8906 0.60791 20.8688 0.603223 20.4 0.546973C17.0438 0.303223 12.0047 0.303223 12.0047 0.303223H11.9953C11.9953 0.303223 6.95625 0.303223 3.6 0.546973C3.13125 0.603223 2.10938 0.60791 1.19531 1.56416C0.473438 2.29072 0.24375 3.94541 0.24375 3.94541C0.24375 3.94541 0 5.89072 0 7.83135V9.6501C0 11.5907 0.239062 13.536 0.239062 13.536C0.239062 13.536 0.473437 15.1907 1.19062 15.9173C2.10469 16.8735 3.30469 16.8407 3.83906 16.9438C5.76094 17.1267 12 17.1829 12 17.1829C12 17.1829 17.0438 17.1735 20.4 16.9345C20.8688 16.8782 21.8906 16.8735 22.8047 15.9173C23.5266 15.1907 23.7609 13.536 23.7609 13.536C23.7609 13.536 24 11.5954 24 9.6501V7.83135C24 5.89072 23.7609 3.94541 23.7609 3.94541ZM9.52031 11.8579V5.1126L16.0031 8.49697L9.52031 11.8579Z" fill="#98A2B3"/>
</svg>
